solid OpenSCAD_Model
  facet normal -1 0 0
    outer loop
      vertex 13.382260002195835 9.001560002565384 0
      vertex 13.382260002195835 13.387759998440742 0.16
      vertex 13.382260002195835 13.387759998440742 0
    endloop
  endfacet
  facet normal 0 0 -1
    outer loop
      vertex 13.382260002195835 9.001560002565384 0
      vertex 13.382260002195835 13.387759998440742 0
      vertex 19.097340002655983 13.387759998440742 0
    endloop
  endfacet
  facet normal -1 0 0
    outer loop
      vertex 13.382260002195835 9.001560002565384 0
      vertex 13.382260002195835 9.001560002565384 0.16
      vertex 13.382260002195835 13.387759998440742 0.16
    endloop
  endfacet
  facet normal 0 1 0
    outer loop
      vertex 13.382260002195835 13.387759998440742 0
      vertex 13.382260002195835 13.387759998440742 0.16
      vertex 19.097340002655983 13.387759998440742 0.16
    endloop
  endfacet
  facet normal 0 -1 0
    outer loop
      vertex 13.382260002195835 9.001560002565384 0
      vertex 24.67970000207424 9.001560002565384 0
      vertex 13.382260002195835 9.001560002565384 0.16
    endloop
  endfacet
  facet normal 0 1 0
    outer loop
      vertex 13.382260002195835 13.387759998440742 0
      vertex 19.097340002655983 13.387759998440742 0.16
      vertex 19.097340002655983 13.387759998440742 0
    endloop
  endfacet
  facet normal 0 0 1
    outer loop
      vertex 13.382260002195835 9.001560002565384 0.16
      vertex 19.097340002655983 13.387759998440742 0.16
      vertex 13.382260002195835 13.387759998440742 0.16
    endloop
  endfacet
  facet normal 0 0 -1
    outer loop
      vertex 13.382260002195835 9.001560002565384 0
      vertex 19.097340002655983 13.387759998440742 0
      vertex 24.67970000207424 9.001560002565384 0
    endloop
  endfacet
  facet normal 0 -1 0
    outer loop
      vertex 13.382260002195835 9.001560002565384 0.16
      vertex 24.67970000207424 9.001560002565384 0
      vertex 24.67970000207424 9.001560002565384 0.16
    endloop
  endfacet
  facet normal 0 0 -1
    outer loop
      vertex 19.097340002655983 13.387759998440742 0
      vertex 24.67970000207424 21.75 0
      vertex 24.67970000207424 9.001560002565384 0
    endloop
  endfacet
  facet normal 0 0 1
    outer loop
      vertex 13.382260002195835 9.001560002565384 0.16
      vertex 24.67970000207424 9.001560002565384 0.16
      vertex 19.097340002655983 13.387759998440742 0.16
    endloop
  endfacet
  facet normal 0 0 1
    outer loop
      vertex 19.097340002655983 13.387759998440742 0.16
      vertex 24.67970000207424 9.001560002565384 0.16
      vertex 24.67970000207424 21.75 0.16
    endloop
  endfacet
  facet normal -1 0 0
    outer loop
      vertex 19.097340002655983 13.387759998440742 0
      vertex 19.097340002655983 13.387759998440742 0.16
      vertex 19.097340002655983 21.75 0
    endloop
  endfacet
  facet normal -1 0 0
    outer loop
      vertex 19.097340002655983 13.387759998440742 0.16
      vertex 19.097340002655983 21.75 0.16
      vertex 19.097340002655983 21.75 0
    endloop
  endfacet
  facet normal 0 0 -1
    outer loop
      vertex 19.097340002655983 13.387759998440742 0
      vertex 19.097340002655983 21.75 0
      vertex 24.67970000207424 21.75 0
    endloop
  endfacet
  facet normal 0 0 1
    outer loop
      vertex 19.097340002655983 13.387759998440742 0.16
      vertex 24.67970000207424 21.75 0.16
      vertex 19.097340002655983 21.75 0.16
    endloop
  endfacet
  facet normal 1 0 0
    outer loop
      vertex 24.67970000207424 9.001560002565384 0
      vertex 24.67970000207424 21.75 0.16
      vertex 24.67970000207424 9.001560002565384 0.16
    endloop
  endfacet
  facet normal 1 0 0
    outer loop
      vertex 24.67970000207424 9.001560002565384 0
      vertex 24.67970000207424 21.75 0
      vertex 24.67970000207424 21.75 0.16
    endloop
  endfacet
  facet normal 0 1 0
    outer loop
      vertex 24.67970000207424 21.75 0
      vertex 19.097340002655983 21.75 0
      vertex 24.67970000207424 21.75 0.16
    endloop
  endfacet
  facet normal 0 1 0
    outer loop
      vertex 19.097340002655983 21.75 0.16
      vertex 24.67970000207424 21.75 0.16
      vertex 19.097340002655983 21.75 0
    endloop
  endfacet
  facet normal 0 0 -1
    outer loop
      vertex 7.913860000669956 9.187200002372265 0.32
      vertex 13.514980003237724 17.066959999501705 0.32
      vertex 13.514980003237724 9.187200002372265 0.32
    endloop
  endfacet
  facet normal 0 -1 0
    outer loop
      vertex 7.913860000669956 9.187200002372265 0.32
      vertex 13.514980003237724 9.187200002372265 0.32
      vertex 7.913860000669956 9.187200002372265 0.48
    endloop
  endfacet
  facet normal -1 0 0
    outer loop
      vertex 7.913860000669956 9.187200002372265 0.32
      vertex 7.913860000669956 9.187200002372265 0.48
      vertex 7.913860000669956 21.75 0.32
    endloop
  endfacet
  facet normal 0 -1 0
    outer loop
      vertex 13.514980003237724 9.187200002372265 0.32
      vertex 13.514980003237724 9.187200002372265 0.48
      vertex 7.913860000669956 9.187200002372265 0.48
    endloop
  endfacet
  facet normal 0 0 1
    outer loop
      vertex 7.913860000669956 9.187200002372265 0.48
      vertex 13.514980003237724 9.187200002372265 0.48
      vertex 13.514980003237724 17.066959999501705 0.48
    endloop
  endfacet
  facet normal 0 0 -1
    outer loop
      vertex 7.913860000669956 9.187200002372265 0.32
      vertex 7.913860000669956 21.75 0.32
      vertex 13.514980003237724 17.066959999501705 0.32
    endloop
  endfacet
  facet normal 0 0 -1
    outer loop
      vertex 13.514980003237724 17.066959999501705 0.32
      vertex 7.913860000669956 21.75 0.32
      vertex 15.926339998841286 19.763360001146793 0.32
    endloop
  endfacet
  facet normal -1 0 0
    outer loop
      vertex 7.913860000669956 9.187200002372265 0.48
      vertex 7.913860000669956 21.75 0.48
      vertex 7.913860000669956 21.75 0.32
    endloop
  endfacet
  facet normal 0 0 1
    outer loop
      vertex 7.913860000669956 9.187200002372265 0.48
      vertex 13.514980003237724 17.066959999501705 0.48
      vertex 7.913860000669956 21.75 0.48
    endloop
  endfacet
  facet normal 0 0 1
    outer loop
      vertex 13.514980003237724 17.066959999501705 0.48
      vertex 15.926339998841286 19.763360001146793 0.48
      vertex 7.913860000669956 21.75 0.48
    endloop
  endfacet
  facet normal 1 0 0
    outer loop
      vertex 13.514980003237724 9.187200002372265 0.32
      vertex 13.514980003237724 17.066959999501705 0.32
      vertex 13.514980003237724 9.187200002372265 0.48
    endloop
  endfacet
  facet normal 1 0 0
    outer loop
      vertex 13.514980003237724 17.066959999501705 0.32
      vertex 13.514980003237724 17.066959999501705 0.48
      vertex 13.514980003237724 9.187200002372265 0.48
    endloop
  endfacet
  facet normal 0 0 -1
    outer loop
      vertex 15.926339998841286 19.763360001146793 0.32
      vertex 7.913860000669956 21.75 0.32
      vertex 20.852000124084352 21.75 0.32
    endloop
  endfacet
  facet normal 0.745407294553962 -0.6666093047848515 0
    outer loop
      vertex 13.514980003237724 17.066959999501705 0.32
      vertex 15.926339998841286 19.763360001146793 0.32
      vertex 13.514980003237724 17.066959999501705 0.48
    endloop
  endfacet
  facet normal 0.745407294553962 -0.6666093047848515 0
    outer loop
      vertex 15.926339998841286 19.763360001146793 0.32
      vertex 15.926339998841286 19.763360001146793 0.48
      vertex 13.514980003237724 17.066959999501705 0.48
    endloop
  endfacet
  facet normal 0 0 1
    outer loop
      vertex 15.926339998841286 19.763360001146793 0.48
      vertex 20.852000124084352 21.75 0.48
      vertex 7.913860000669956 21.75 0.48
    endloop
  endfacet
  facet normal -0.8650685599922591 -0.5016536519481536 0
    outer loop
      vertex 15.926339998841286 19.763360001146793 0.32
      vertex 22.059459999203682 9.187200002372265 0.32
      vertex 15.926339998841286 19.763360001146793 0.48
    endloop
  endfacet
  facet normal 0 0 -1
    outer loop
      vertex 7.913860000669956 34.801320001482964 0.32
      vertex 13.514980003237724 23.42772000283003 0.32
      vertex 7.913860000669956 22.25 0.32
    endloop
  endfacet
  facet normal -1 0 0
    outer loop
      vertex 7.913860000669956 34.801320001482964 0.32
      vertex 7.913860000669956 22.25 0.32
      vertex 7.913860000669956 22.25 0.48
    endloop
  endfacet
  facet normal 0 0 1
    outer loop
      vertex 7.913860000669956 34.801320001482964 0.48
      vertex 7.913860000669956 22.25 0.48
      vertex 13.514980003237724 23.42772000283003 0.48
    endloop
  endfacet
  facet normal 0 0 -1
    outer loop
      vertex 7.913860000669956 34.801320001482964 0.32
      vertex 13.514980003237724 34.801320001482964 0.32
      vertex 13.514980003237724 23.42772000283003 0.32
    endloop
  endfacet
  facet normal -1 0 0
    outer loop
      vertex 7.913860000669956 34.801320001482964 0.32
      vertex 7.913860000669956 22.25 0.48
      vertex 7.913860000669956 34.801320001482964 0.48
    endloop
  endfacet
  facet normal 0 1 0
    outer loop
      vertex 7.913860000669956 34.801320001482964 0.32
      vertex 7.913860000669956 34.801320001482964 0.48
      vertex 13.514980003237724 34.801320001482964 0.48
    endloop
  endfacet
  facet normal 0 0 1
    outer loop
      vertex 7.913860000669956 34.801320001482964 0.48
      vertex 13.514980003237724 23.42772000283003 0.48
      vertex 13.514980003237724 34.801320001482964 0.48
    endloop
  endfacet
  facet normal 0 1 0
    outer loop
      vertex 7.913860000669956 34.801320001482964 0.32
      vertex 13.514980003237724 34.801320001482964 0.48
      vertex 13.514980003237724 34.801320001482964 0.32
    endloop
  endfacet
  facet normal 0 0 -1
    outer loop
      vertex 13.514980003237724 23.42772000283003 0.32
      vertex 19.57193999737501 23.807680003345013 0.32
      vertex 7.913860000669956 22.25 0.32
    endloop
  endfacet
  facet normal 0 0 -1
    outer loop
      vertex 19.57193999737501 23.807680003345013 0.32
      vertex 20.540955616525245 22.25 0.32
      vertex 7.913860000669956 22.25 0.32
    endloop
  endfacet
  facet normal 0 0 1
    outer loop
      vertex 13.514980003237724 23.42772000283003 0.48
      vertex 7.913860000669956 22.25 0.48
      vertex 20.540955616525245 22.25 0.48
    endloop
  endfacet
  facet normal 1 0 0
    outer loop
      vertex 13.514980003237724 23.42772000283003 0.32
      vertex 13.514980003237724 34.801320001482964 0.32
      vertex 13.514980003237724 23.42772000283003 0.48
    endloop
  endfacet
  facet normal 0 0 1
    outer loop
      vertex 13.514980003237724 23.42772000283003 0.48
      vertex 20.540955616525245 22.25 0.48
      vertex 19.57193999737501 23.807680003345013 0.48
    endloop
  endfacet
  facet normal -0.80850707156287 0.5884864613844843 0
    outer loop
      vertex 13.514980003237724 23.42772000283003 0.32
      vertex 13.514980003237724 23.42772000283003 0.48
      vertex 21.793459996581078 34.801320001482964 0.48
    endloop
  endfacet
  facet normal 1 0 0
    outer loop
      vertex 13.514980003237724 34.801320001482964 0.32
      vertex 13.514980003237724 34.801320001482964 0.48
      vertex 13.514980003237724 23.42772000283003 0.48
    endloop
  endfacet
  facet normal -0.8650685599922591 -0.5016536519481536 0
    outer loop
      vertex 15.926339998841286 19.763360001146793 0.48
      vertex 22.059459999203682 9.187200002372265 0.32
      vertex 22.059459999203682 9.187200002372265 0.48
    endloop
  endfacet
  facet normal 0 0 -1
    outer loop
      vertex 15.926339998841286 19.763360001146793 0.32
      vertex 20.852000124084352 21.75 0.32
      vertex 22.059459999203682 9.187200002372265 0.32
    endloop
  endfacet
  facet normal 0 0 1
    outer loop
      vertex 15.926339998841286 19.763360001146793 0.48
      vertex 22.059459999203682 9.187200002372265 0.48
      vertex 20.852000124084352 21.75 0.48
    endloop
  endfacet
  facet normal 0.8491073349892139 0.5282203457530912 0
    outer loop
      vertex 28.667180001735687 9.187200002372265 0.32
      vertex 20.852000124084352 21.75 0.32
      vertex 20.852000124084352 21.75 0.48
    endloop
  endfacet
  facet normal 0 0 -1
    outer loop
      vertex 22.059459999203682 9.187200002372265 0.32
      vertex 20.852000124084352 21.75 0.32
      vertex 28.667180001735687 9.187200002372265 0.32
    endloop
  endfacet
  facet normal 0 -1 0
    outer loop
      vertex 22.059459999203682 9.187200002372265 0.32
      vertex 28.667180001735687 9.187200002372265 0.32
      vertex 22.059459999203682 9.187200002372265 0.48
    endloop
  endfacet
  facet normal 0 0 1
    outer loop
      vertex 22.059459999203682 9.187200002372265 0.48
      vertex 28.667180001735687 9.187200002372265 0.48
      vertex 20.852000124084352 21.75 0.48
    endloop
  endfacet
  facet normal 0.8491073349892139 0.5282203457530912 0
    outer loop
      vertex 28.667180001735687 9.187200002372265 0.32
      vertex 20.852000124084352 21.75 0.48
      vertex 28.667180001735687 9.187200002372265 0.48
    endloop
  endfacet
  facet normal 0 -1 0
    outer loop
      vertex 28.667180001735687 9.187200002372265 0.32
      vertex 28.667180001735687 9.187200002372265 0.48
      vertex 22.059459999203682 9.187200002372265 0.48
    endloop
  endfacet
  facet normal 0 0 -1
    outer loop
      vertex 13.514980003237724 23.42772000283003 0.32
      vertex 21.793459996581078 34.801320001482964 0.32
      vertex 19.57193999737501 23.807680003345013 0.32
    endloop
  endfacet
  facet normal 0.8491073349892139 0.5282203457530907 0
    outer loop
      vertex 19.57193999737501 23.807680003345013 0.32
      vertex 19.57193999737501 23.807680003345013 0.48
      vertex 20.540955616525245 22.25 0.32
    endloop
  endfacet
  facet normal 0.8491073349892139 0.5282203457530907 0
    outer loop
      vertex 19.57193999737501 23.807680003345013 0.48
      vertex 20.540955616525245 22.25 0.48
      vertex 20.540955616525245 22.25 0.32
    endloop
  endfacet
  facet normal 0 0 1
    outer loop
      vertex 13.514980003237724 23.42772000283003 0.48
      vertex 19.57193999737501 23.807680003345013 0.48
      vertex 21.793459996581078 34.801320001482964 0.48
    endloop
  endfacet
  facet normal 0.782969437133794 -0.6220601743516377 0
    outer loop
      vertex 19.57193999737501 23.807680003345013 0.32
      vertex 28.306259997189045 34.801320001482964 0.32
      vertex 19.57193999737501 23.807680003345013 0.48
    endloop
  endfacet
  facet normal 0 0 -1
    outer loop
      vertex 19.57193999737501 23.807680003345013 0.32
      vertex 21.793459996581078 34.801320001482964 0.32
      vertex 28.306259997189045 34.801320001482964 0.32
    endloop
  endfacet
  facet normal -0.80850707156287 0.5884864613844843 0
    outer loop
      vertex 13.514980003237724 23.42772000283003 0.32
      vertex 21.793459996581078 34.801320001482964 0.48
      vertex 21.793459996581078 34.801320001482964 0.32
    endloop
  endfacet
  facet normal 0 0 1
    outer loop
      vertex 19.57193999737501 23.807680003345013 0.48
      vertex 28.306259997189045 34.801320001482964 0.48
      vertex 21.793459996581078 34.801320001482964 0.48
    endloop
  endfacet
  facet normal 0.782969437133794 -0.6220601743516377 0
    outer loop
      vertex 28.306259997189045 34.801320001482964 0.32
      vertex 28.306259997189045 34.801320001482964 0.48
      vertex 19.57193999737501 23.807680003345013 0.48
    endloop
  endfacet
  facet normal 0 1 0
    outer loop
      vertex 21.793459996581078 34.801320001482964 0.32
      vertex 21.793459996581078 34.801320001482964 0.48
      vertex 28.306259997189045 34.801320001482964 0.48
    endloop
  endfacet
  facet normal 0 1 0
    outer loop
      vertex 21.793459996581078 34.801320001482964 0.32
      vertex 28.306259997189045 34.801320001482964 0.48
      vertex 28.306259997189045 34.801320001482964 0.32
    endloop
  endfacet
  facet normal 0 1 0
    outer loop
      vertex 7.913860000669956 21.75 0.48
      vertex 20.852000124084352 21.75 0.48
      vertex 7.913860000669956 21.75 0.32
    endloop
  endfacet
  facet normal 0 1 0
    outer loop
      vertex 7.913860000669956 21.75 0.32
      vertex 20.852000124084352 21.75 0.48
      vertex 20.852000124084352 21.75 0.32
    endloop
  endfacet
  facet normal 0 -1 0
    outer loop
      vertex 7.913860000669956 22.25 0.32
      vertex 20.540955616525245 22.25 0.32
      vertex 7.913860000669956 22.25 0.48
    endloop
  endfacet
  facet normal 0 -1 0
    outer loop
      vertex 7.913860000669956 22.25 0.48
      vertex 20.540955616525245 22.25 0.32
      vertex 20.540955616525245 22.25 0.48
    endloop
  endfacet
  facet normal -1 0 0
    outer loop
      vertex 9.337659999728203 34.812799997627735 0
      vertex 9.337659999728203 22.25 0
      vertex 9.337659999728203 22.25 0.16
    endloop
  endfacet
  facet normal 0 0 -1
    outer loop
      vertex 14.939060002565384 30.483719997107983 0
      vertex 14.939060002565384 22.25 0
      vertex 9.337659999728203 22.25 0
    endloop
  endfacet
  facet normal 0 0 1
    outer loop
      vertex 14.939060002565384 30.483719997107983 0.16
      vertex 9.337659999728203 22.25 0.16
      vertex 14.939060002565384 22.25 0.16
    endloop
  endfacet
  facet normal -1 0 0
    outer loop
      vertex 9.337659999728203 34.812799997627735 0
      vertex 9.337659999728203 22.25 0.16
      vertex 9.337659999728203 34.812799997627735 0.16
    endloop
  endfacet
  facet normal 0 0 -1
    outer loop
      vertex 9.337659999728203 34.812799997627735 0
      vertex 14.939060002565384 30.483719997107983 0
      vertex 9.337659999728203 22.25 0
    endloop
  endfacet
  facet normal 0 0 1
    outer loop
      vertex 9.337659999728203 34.812799997627735 0.16
      vertex 9.337659999728203 22.25 0.16
      vertex 14.939060002565384 30.483719997107983 0.16
    endloop
  endfacet
  facet normal 1 0 0
    outer loop
      vertex 14.939060002565384 30.483719997107983 0.16
      vertex 14.939060002565384 22.25 0.16
      vertex 14.939060002565384 22.25 0
    endloop
  endfacet
  facet normal 1 0 0
    outer loop
      vertex 14.939060002565384 30.483719997107983 0
      vertex 14.939060002565384 30.483719997107983 0.16
      vertex 14.939060002565384 22.25 0
    endloop
  endfacet
  facet normal 0 1 0
    outer loop
      vertex 9.337659999728203 34.812799997627735 0
      vertex 9.337659999728203 34.812799997627735 0.16
      vertex 26.635499998927116 34.812799997627735 0.16
    endloop
  endfacet
  facet normal 0 0 -1
    outer loop
      vertex 9.337659999728203 34.812799997627735 0
      vertex 26.635499998927116 34.812799997627735 0
      vertex 14.939060002565384 30.483719997107983 0
    endloop
  endfacet
  facet normal 0 0 1
    outer loop
      vertex 9.337659999728203 34.812799997627735 0.16
      vertex 14.939060002565384 30.483719997107983 0.16
      vertex 26.635499998927116 34.812799997627735 0.16
    endloop
  endfacet
  facet normal 0 -1 0
    outer loop
      vertex 14.939060002565384 30.483719997107983 0
      vertex 26.635499998927116 30.483719997107983 0
      vertex 14.939060002565384 30.483719997107983 0.16
    endloop
  endfacet
  facet normal 0 1 0
    outer loop
      vertex 9.337659999728203 34.812799997627735 0
      vertex 26.635499998927116 34.812799997627735 0.16
      vertex 26.635499998927116 34.812799997627735 0
    endloop
  endfacet
  facet normal 0 -1 0
    outer loop
      vertex 14.939060002565384 30.483719997107983 0.16
      vertex 26.635499998927116 30.483719997107983 0
      vertex 26.635499998927116 30.483719997107983 0.16
    endloop
  endfacet
  facet normal 0 0 -1
    outer loop
      vertex 14.939060002565384 30.483719997107983 0
      vertex 26.635499998927116 34.812799997627735 0
      vertex 26.635499998927116 30.483719997107983 0
    endloop
  endfacet
  facet normal 0 0 1
    outer loop
      vertex 14.939060002565384 30.483719997107983 0.16
      vertex 26.635499998927116 30.483719997107983 0.16
      vertex 26.635499998927116 34.812799997627735 0.16
    endloop
  endfacet
  facet normal 1 0 0
    outer loop
      vertex 26.635499998927116 30.483719997107983 0
      vertex 26.635499998927116 34.812799997627735 0
      vertex 26.635499998927116 30.483719997107983 0.16
    endloop
  endfacet
  facet normal 1 0 0
    outer loop
      vertex 26.635499998927116 34.812799997627735 0
      vertex 26.635499998927116 34.812799997627735 0.16
      vertex 26.635499998927116 30.483719997107983 0.16
    endloop
  endfacet
  facet normal 0 -1 0
    outer loop
      vertex 9.337659999728203 22.25 0
      vertex 14.939060002565384 22.25 0
      vertex 9.337659999728203 22.25 0.16
    endloop
  endfacet
  facet normal 0 -1 0
    outer loop
      vertex 14.939060002565384 22.25 0.16
      vertex 9.337659999728203 22.25 0.16
      vertex 14.939060002565384 22.25 0
    endloop
  endfacet
endsolid OpenSCAD_Model
